<?xml version="1.0" standalone="no"?><!DOCTYPE svg PUBLIC "-//W3C//DTD SVG 1.1//EN" "http://www.w3.org/Graphics/SVG/1.1/DTD/svg11.dtd"><svg t="1647851763852" class="icon" viewBox="0 0 1024 1024" version="1.1" xmlns="http://www.w3.org/2000/svg" p-id="3120" xmlns:xlink="http://www.w3.org/1999/xlink" width="200" height="200"><defs><style type="text/css">@font-face { font-family: feedback-iconfont; src: url("//at.alicdn.com/t/font_1031158_u69w8yhxdu.woff2?t=1630033759944") format("woff2"), url("//at.alicdn.com/t/font_1031158_u69w8yhxdu.woff?t=1630033759944") format("woff"), url("//at.alicdn.com/t/font_1031158_u69w8yhxdu.ttf?t=1630033759944") format("truetype"); }
</style></defs><path d="M868.500948 233.784534l-78.4487 0 0-86.97898c0-44.061518-39.659255-79.917144-88.446401-79.917144L212.433762 66.88841l-7.2798 0-49.655933 0c-48.678676 0-88.446401 35.855626-88.446401 79.917144l0 274.954189 0 288.537556c0 44.060495 39.659255 79.917144 88.446401 79.917144l78.341253 0 0-55.57883-78.341253 0c-17.819854 0-32.81436-11.136641-32.81436-24.338315L122.683668 435.342086 122.683668 146.805554c0-13.201673 15.102976-24.339338 32.81436-24.339338l49.655933 0 7.2798 0 489.172085 0c17.817808 0 32.813337 11.137665 32.813337 24.339338l0 86.97898L379.329886 233.784534l-7.2798 0-49.65491 0c-48.677653 0-88.447425 35.856649-88.447425 79.917144l0 274.955212 0 288.536532c0 44.060495 39.660278 79.917144 88.447425 79.917144l546.105772 0c48.678676 0 88.446401-35.856649 88.446401-79.917144L956.94735 602.239234 956.94735 313.701678C956.946326 269.641183 917.287071 233.784534 868.500948 233.784534zM901.316332 588.656891l0 288.536532c0 13.201673-15.103999 24.339338-32.815383 24.339338L322.394153 901.532761c-17.819854 0-32.81436-11.137665-32.81436-24.339338L289.579793 602.239234 289.579793 313.701678c0-13.201673 15.103999-24.339338 32.81436-24.339338l49.65491 0 7.2798 0 489.171062 0c17.819854 0 32.815383 11.137665 32.815383 24.339338L901.315308 588.656891z" p-id="3121" fill="#707070"></path><path d="M372.918873 455.009008l333.682755 0c15.321964 0 27.817556-12.386098 27.817556-27.815509 0-15.32094-12.387122-27.816532-27.817556-27.816532L372.918873 399.376966c-15.32094 0-27.816532 12.495592-27.816532 27.816532C345.103364 442.621886 357.598956 455.009008 372.918873 455.009008z" p-id="3122" fill="#707070"></path><path d="M817.866734 566.273091 372.918873 566.273091c-15.32094 0-27.816532 12.495592-27.816532 27.816532 0 15.429411 12.495592 27.816532 27.816532 27.816532l444.947861 0c15.321964 0 27.817556-12.386098 27.817556-27.816532C845.68429 578.768683 833.296145 566.273091 817.866734 566.273091z" p-id="3123" fill="#707070"></path><path d="M817.866734 733.169215 372.918873 733.169215c-15.32094 0-27.816532 12.495592-27.816532 27.816532 0 15.429411 12.495592 27.816532 27.816532 27.816532l444.947861 0c15.321964 0 27.817556-12.386098 27.817556-27.816532C845.68429 745.664807 833.296145 733.169215 817.866734 733.169215z" p-id="3124" fill="#707070"></path></svg>