<?xml version="1.0" standalone="no"?><!DOCTYPE svg PUBLIC "-//W3C//DTD SVG 1.1//EN" "http://www.w3.org/Graphics/SVG/1.1/DTD/svg11.dtd"><svg t="1647851758945" class="icon" viewBox="0 0 1035 1024" version="1.1" xmlns="http://www.w3.org/2000/svg" p-id="2945" xmlns:xlink="http://www.w3.org/1999/xlink" width="202.1484375" height="200"><defs><style type="text/css">@font-face { font-family: feedback-iconfont; src: url("//at.alicdn.com/t/font_1031158_u69w8yhxdu.woff2?t=1630033759944") format("woff2"), url("//at.alicdn.com/t/font_1031158_u69w8yhxdu.woff?t=1630033759944") format("woff"), url("//at.alicdn.com/t/font_1031158_u69w8yhxdu.ttf?t=1630033759944") format("truetype"); }
</style></defs><path d="M214.983 22.63L22.63 214.983C5.657 226.298 0 243.271 0 265.901c0 16.972 5.657 33.944 22.63 45.26l192.353 198.01 147.094-147.094-50.917-50.917-96.177 101.834-45.26-50.917 96.178-96.176-50.918-50.918-96.176 101.835-45.26-50.917L271.558 67.89 469.569 265.9l39.602-45.26-198.01-198.01C299.844 5.657 282.872 0 265.9 0c-16.973 0-39.603 5.657-50.918 22.63z m729.813 729.812L746.785 950.453l-50.918-50.917 96.177-96.177-50.917-50.917-84.862 96.177-50.917-50.917 96.177-96.177-50.917-50.917L509.17 803.359l198.011 198.011c11.315 11.315 28.288 22.63 50.917 22.63 16.973 0 33.945-5.657 50.918-22.63l198.01-198.01c11.316-11.316 22.63-28.288 22.63-50.918 0-16.972-5.657-33.945-22.63-50.917L803.36 509.17l-50.917 50.917 192.354 192.354zM701.525 169.724l147.094 147.094-50.917 50.917L644.95 220.64l56.575-50.917zM198.01 667.58l147.094 147.094-50.917 50.917-147.094-147.094 50.917-50.917zM701.525 67.89c28.287-28.288 62.232-39.603 101.834-39.603S876.906 45.26 905.193 67.89l50.917 50.917c56.575 56.574 56.575 147.094 0 198.01L328.133 933.482 22.63 990.055l56.574-305.503L701.524 67.89zM305.503 859.934L899.536 265.9c28.287-28.288 28.287-73.547 0-101.835l-50.917-45.26c-28.288-28.287-73.547-28.287-101.834 0L158.409 707.183l-33.945 181.039 181.039-28.287z m0 0" p-id="2946" fill="#707070"></path></svg>