<?xml version="1.0" standalone="no"?><!DOCTYPE svg PUBLIC "-//W3C//DTD SVG 1.1//EN" "http://www.w3.org/Graphics/SVG/1.1/DTD/svg11.dtd"><svg t="1647851724678" class="icon" viewBox="0 0 1024 1024" version="1.1" xmlns="http://www.w3.org/2000/svg" p-id="2485" xmlns:xlink="http://www.w3.org/1999/xlink" width="200" height="200"><defs><style type="text/css">@font-face { font-family: feedback-iconfont; src: url("//at.alicdn.com/t/font_1031158_u69w8yhxdu.woff2?t=1630033759944") format("woff2"), url("//at.alicdn.com/t/font_1031158_u69w8yhxdu.woff?t=1630033759944") format("woff"), url("//at.alicdn.com/t/font_1031158_u69w8yhxdu.ttf?t=1630033759944") format("truetype"); }
</style></defs><path d="M578.978 900.628c-45.241-0.08-90.484-0.08-135.725 0-15.133 0.026-27.458 11.198-29.396 26.26-1.826 14.207 7.497 28.024 21.608 32.024 1.234 0.351 2.464 0.725 3.694 1.088h144.264c0.545-0.209 1.073-0.487 1.634-0.617 15.328-3.507 25.351-17.092 23.707-32.143-1.666-15.237-14.192-26.586-29.786-26.612zM376.592 427.76c-0.042-0.301-4.146-30.571 4.898-66.526 11.465-45.575 38.281-79.41 79.705-100.565 15.049-7.685 21.018-26.114 13.331-41.164-7.684-15.049-26.115-21.02-41.162-13.332-57.862 29.55-96.54 78.907-111.856 142.736-11.32 47.177-5.696 86.148-5.451 87.784 2.273 15.184 15.344 26.132 30.249 26.132 1.5 0 3.02-0.111 4.548-0.34 16.712-2.502 28.24-18.014 25.738-34.725zM619.81 780.393c-50.9-0.056-101.802-0.021-152.703-0.018-21.561 0.001-43.126-0.173-64.685 0.07-25.154 0.283-46.218 21.494-46.688 46.607-0.517 27.559 20.826 49.428 48.458 49.482 35.936 0.071 71.874 0.017 107.81 0.017l0.001-0.013c36.407 0 72.819 0.183 109.224-0.057 30.19-0.201 52.689-29.161 45.862-58.52-5.197-22.356-24.192-37.542-47.279-37.568z" p-id="2486" fill="#707070"></path><path d="M521.613 128c1.543 0.194 3.278 0.366 5.15 0.469 22.266 1.231 44.583 5.584 66.33 12.94 92.286 31.214 158.783 113.853 169.408 210.523 0.45 4.097 0.848 8.322 1.27 12.794 0.113 1.204 0.227 2.407 0.342 3.611v21.548a76.94 76.94 0 0 0-0.462 4.884c-1.484 23.95-6.002 46.95-13.43 68.36-7.456 21.492-18.116 42.158-31.684 61.426-29.245 41.531-57.303 85.56-83.397 130.867a1167.994 1167.994 0 0 0-18.133 32.668l-4.999-0.001-12.279-0.002-52.892-0.003-52.902-0.003c-34.066 0-62.031 0.006-87.476 0.019-21.885-40.498-47.065-82.251-76.699-127.2-4.139-6.279-8.316-12.454-12.355-18.426-8.105-11.982-15.76-23.299-22.586-34.614-18.061-29.94-29.273-63.486-33.325-99.703-0.456-4.077-0.854-8.321-1.276-12.814-0.108-1.152-0.216-2.304-0.326-3.456v-21.368c0.195-1.549 0.367-3.289 0.472-5.17 1.222-22.255 5.608-44.681 13.035-66.651 31.126-92.062 113.723-158.435 210.377-169.087 4.095-0.448 8.315-0.845 12.782-1.266l3.667-0.346h21.388M526.851 64h-29.702c-6.78 0.662-13.567 1.251-20.338 1.992-121.413 13.381-224.967 96.629-264.044 212.209-9.18 27.156-14.738 55.007-16.31 83.641-0.064 1.146-0.373 2.276-0.568 3.413v29.702c0.661 6.772 1.242 13.552 1.998 20.314 5.024 44.903 18.799 86.976 42.128 125.649 11.368 18.845 24.184 36.814 36.307 55.205 28.789 43.667 55.951 88.299 80.334 134.595 1.205 2.287 2.489 4.556 3.431 6.951 3.986 10.128 11.542 14.446 22.194 14.446h0.033c37.204-0.028 74.414-0.035 111.618-0.035 35.267 0 70.527 0.006 105.794 0.006 8.173 0 16.348 0.005 24.521 0.005 5.849 0 11.697-0.002 17.545-0.011 10.064-0.012 16.639-4.655 21.261-13.814 8.689-17.219 17.918-34.189 27.545-50.906 24.868-43.178 51.558-85.191 80.264-125.958 34.322-48.741 52.977-103.155 56.664-162.677 0.078-1.262 0.384-2.51 0.584-3.766v-29.7c-0.662-6.772-1.251-13.549-1.993-20.311-13.356-121.514-96.596-224.958-212.521-264.167-27.043-9.147-54.789-14.64-83.303-16.216-1.154-0.064-2.295-0.373-3.442-0.567z" p-id="2487" fill="#707070"></path></svg>