<?xml version="1.0" standalone="no"?><!DOCTYPE svg PUBLIC "-//W3C//DTD SVG 1.1//EN" "http://www.w3.org/Graphics/SVG/1.1/DTD/svg11.dtd"><svg t="1647851775927" class="icon" viewBox="0 0 1024 1024" version="1.1" xmlns="http://www.w3.org/2000/svg" p-id="3374" xmlns:xlink="http://www.w3.org/1999/xlink" width="200" height="200"><defs><style type="text/css">@font-face { font-family: feedback-iconfont; src: url("//at.alicdn.com/t/font_1031158_u69w8yhxdu.woff2?t=1630033759944") format("woff2"), url("//at.alicdn.com/t/font_1031158_u69w8yhxdu.woff?t=1630033759944") format("woff"), url("//at.alicdn.com/t/font_1031158_u69w8yhxdu.ttf?t=1630033759944") format("truetype"); }
</style></defs><path d="M0.682667 785.408c0 131.072 106.154667 237.226667 237.226666 237.226667s237.226667-106.154667 237.226667-237.226667v-237.226667H237.909333C106.837333 548.181333 0.682667 654.336 0.682667 785.408z m388.437333 0c0 83.285333-67.925333 151.210667-151.210667 151.210667s-151.210667-67.925333-151.210666-151.210667 67.925333-151.210667 151.210666-151.210667H389.12v151.210667zM1021.952 238.592c0-131.072-106.154667-237.226667-237.226667-237.226667s-237.226667 106.154667-237.226666 237.226667v237.226667h237.226666c131.072 0 237.226667-106.154667 237.226667-237.226667z m-388.437333 0c0-83.285333 67.925333-151.210667 151.210666-151.210667s151.210667 67.925333 151.210667 151.210667-67.925333 151.210667-151.210667 151.210667h-151.210666V238.592zM237.909333 475.818667h237.226667V238.592C475.136 107.52 368.981333 1.365333 237.909333 1.365333S0.682667 107.52 0.682667 238.592s106.154667 237.226667 237.226666 237.226667z m0-388.437334c83.285333 0 151.210667 67.925333 151.210667 151.210667v151.210667H237.909333c-83.285333 0-151.210667-67.925333-151.210666-151.210667s67.925333-151.210667 151.210666-151.210667z m546.816 460.8h-237.226666v237.226667c0 131.072 106.154667 237.226667 237.226666 237.226667s237.226667-106.154667 237.226667-237.226667-106.154667-237.226667-237.226667-237.226667z m0 388.437334c-83.285333 0-151.210667-67.925333-151.210666-151.210667v-151.210667h151.210666c83.285333 0 151.210667 67.925333 151.210667 151.210667s-67.925333 151.210667-151.210667 151.210667z m0 0" p-id="3375" fill="#707070"></path></svg>